HIERARCHY
ROOT Hips
{
  OFFSET 34.0413 97.9226 25.1906
  CHANNELS 6 Xposition Yposition Zposition Zrotation Xrotation Yrotation
  JOINT ToSpine
  {
    OFFSET -0.0105055 1.38907 -7.13956
    CHANNELS 3 Zrotation Xrotation Yrotation
    JOINT Spine
    {
      OFFSET 0.0105055 10 1
      CHANNELS 3 Zrotation Xrotation Yrotation
      JOINT Spine1
      {
        OFFSET 0 12 1.60637
        CHANNELS 3 Zrotation Xrotation Yrotation
        JOINT Neck
        {
          OFFSET 0 27 2.26658
          CHANNELS 3 Zrotation Xrotation Yrotation
          JOINT Head
          {
            OFFSET 0 9 2.12705
            CHANNELS 3 Zrotation Xrotation Yrotation
            End Site
            {
              OFFSET 0 11 2
            }
          }
        }
        JOINT LeftShoulder
        {
          OFFSET 8 19.6109 2.86452
          CHANNELS 3 Zrotation Xrotation Yrotation
          JOINT LeftArm
          {
            OFFSET 12 1 0.681055
            CHANNELS 3 Zrotation Xrotation Yrotation
            JOINT LeftForeArm
            {
              OFFSET 19 0 -1.52608
              CHANNELS 3 Zrotation Xrotation Yrotation
              JOINT LeftHand
              {
                OFFSET 23 0 0
                CHANNELS 3 Zrotation Xrotation Yrotation
                End Site
                {
                  OFFSET 10 0 0
                }
              }
            }
          }
        }
        JOINT RightShoulder
        {
          OFFSET -8 19.6109 2.86452
          CHANNELS 3 Zrotation Xrotation Yrotation
          JOINT RightArm
          {
            OFFSET -12 1 0.681055
            CHANNELS 3 Zrotation Xrotation Yrotation
            JOINT RightForeArm
            {
              OFFSET -19 0 -1.52608
              CHANNELS 3 Zrotation Xrotation Yrotation
              JOINT RightHand
              {
                OFFSET -23 0 0
                CHANNELS 3 Zrotation Xrotation Yrotation
                End Site
                {
                  OFFSET -10 0 0
                }
              }
            }
          }
        }
      }
    }
  }
  JOINT LeftUpLeg
  {
    OFFSET 9 -7.17245 0
    CHANNELS 3 Zrotation Xrotation Yrotation
    JOINT LeftLeg
    {
      OFFSET 0 -44.1113 0
      CHANNELS 3 Zrotation Xrotation Yrotation
      JOINT LeftFoot
      {
        OFFSET 0 -36.1829 0
        CHANNELS 3 Zrotation Xrotation Yrotation
        JOINT LeftToeBase
        {
          OFFSET 0 -4.84184 13
          CHANNELS 3 Zrotation Xrotation Yrotation
          End Site
          {
            OFFSET 0 1 6
          }
        }
      }
    }
  }
  JOINT RightUpLeg
  {
    OFFSET -9 -7.17245 0
    CHANNELS 3 Zrotation Xrotation Yrotation
    JOINT RightLeg
    {
      OFFSET 0 -44.0551 0
      CHANNELS 3 Zrotation Xrotation Yrotation
      JOINT RightFoot
      {
        OFFSET 0 -36.1469 0
        CHANNELS 3 Zrotation Xrotation Yrotation
        JOINT RightToeBase
        {
          OFFSET 0 -4.92256 13
          CHANNELS 3 Zrotation Xrotation Yrotation
          End Site
          {
            OFFSET 0 1 6
          }
        }
      }
    }
  }
}
MOTION
Frames:	10
Frame Time:	0.0333333
25.8853 95.2255 25.3301 -3.03443 -16.752 1.74887 0 0 0 9.72533 -16.0071 1.34255 4.30561 28.7555 -2.68756 6.2407 48.7862 8.62771 -11.486 -5.68976 16.4425 -34.5956 3.95731 -6.20963 -47.1445 28.876 -1.6827 -5.29922 -10.018 -8.41143 -10.6845 0.2372 -2.53039 29.9057 7.4835 17.1069 42.7416 15.907 -7.29301 3.65933 -4.499 14.021 2.2973 0.0765116 3.81592 13.0182 2.86716 5.84466 -7.31929e-005 39.4175 -23.1663 6.85403 -26.2495 1.59905 0.578567 -0.0489067 -2.41285 7.76031 16.5682 -6.76445 3.95044 10.1262 -1.66686 -34.9681 -8.94216 -2.82325 4.67798 -19.8168 -12.6645 
26.2085 95.3111 25.4285 -2.43175 -16.8262 2.38616 0 0 0 10.7655 -16.013 1.73701 2.51679 28.6423 -1.62367 6.05826 48.7227 8.87401 -12.3169 -5.24669 16.7636 -34.1212 3.94849 -6.30366 -47.9017 28.211 -0.789675 -5.29264 -11.0762 -8.4796 -11.7964 0.288377 -2.7927 30.4394 7.67714 17.3327 42.5302 16.526 -7.27119 4.07235 -5.34647 13.6782 2.33202 0.0842772 4.13906 12.3168 3.11322 6.00479 -0.000443462 38.9471 -23.5767 7.5058 -25.7324 1.71693 0.555369 -0.631432 -2.20397 7.22763 16.5275 -6.88809 3.54895 10.6052 -2.0136 -34.3065 -9.64402 -2.98362 4.58267 -19.1762 -12.5338 
26.4497 95.3423 25.5398 -2.19375 -16.9047 2.92642 0 0 0 11.3929 -15.9165 2.07767 1.99387 28.4611 -1.13532 4.1689 49.0128 10.2565 -12.4052 -5.62721 16.9239 -34.9112 4.03207 -6.31493 -48.1165 27.1456 0.16493 -4.9899 -10.473 -8.70365 -12.2666 0.299728 -2.78927 30.2512 7.66217 17.3966 42.6705 16.6866 -7.28794 3.8946 -4.67928 13.7133 2.06428 0.0739913 4.10621 12.1766 3.17298 6.16915 9.96414e-005 38.9266 -24.3362 7.20897 -25.8424 1.65555 0.579691 0.0190147 -2.43911 7.11093 16.6233 -6.90222 3.37262 10.7014 -2.5443 -34.4115 -9.75984 -3.02894 4.5518 -18.9539 -12.426 
26.7064 95.3477 25.6414 -1.83061 -16.9584 3.54508 0 0 0 12.1528 -15.9227 2.4185 1.01989 28.6097 -0.52638 2.46751 48.7142 11.7231 -12.2559 -5.65043 17.2505 -35.2091 4.0976 -6.40222 -48.5362 27.0775 0.867721 -4.77687 -9.54131 -9.15382 -12.1406 0.287 -2.69728 30.1532 7.71401 17.5904 42.8979 16.6614 -7.40837 3.97788 -5.35367 14.0641 2.0762 0.0727783 4.00662 11.8345 3.22423 6.33988 -0.000150628 38.8558 -24.9258 7.8588 -25.5417 1.78408 0.444143 -0.909934 -1.67188 6.73327 16.707 -7.19756 3.50393 10.8392 -2.91862 -35.183 -9.76541 -3.10289 4.59331 -19.1745 -12.3135 
27.0425 95.37 25.7476 -1.27505 -17.0336 4.46381 0 0 0 12.078 -15.8039 2.47817 1.02101 28.7724 -0.444495 0.358891 48.5707 13.3677 -12.1492 -6.55373 17.44 -36.0783 4.05262 -6.08604 -48.1385 28.3594 0.854082 -4.91691 -9.48811 -9.45035 -11.2143 0.258379 -2.63188 29.9516 7.75301 17.8089 42.8998 16.804 -7.63434 4.1531 -6.53412 14.6399 2.01834 0.0657038 3.73748 11.1414 3.23576 5.84804 0.000628762 38.7855 -25.0603 7.80597 -25.5774 1.77398 0.670563 0.3629 -2.8628 6.19883 16.8634 -7.58194 3.52387 10.9145 -3.30476 -35.406 -9.79827 -3.13444 4.64079 -19.4826 -12.3695 
27.3702 95.3951 25.8794 -0.604872 -17.4216 5.45211 0 0 0 11.9678 -14.8931 2.41411 0.748959 28.4933 -0.203711 -1.44876 47.839 14.8929 -11.9836 -6.87117 17.737 -36.25 4.02476 -5.98233 -48.0454 28.6865 0.937699 -4.99575 -10.067 -9.73995 -11.1001 0.2487 -2.55894 29.5941 7.62096 17.6556 43.1688 16.9534 -7.29589 4.01809 -5.80162 14.4315 2.99835 0.0945707 3.608 10.4799 3.70779 5.75089 -0.000248176 38.5102 -25.6022 8.30086 -25.1822 1.8574 0.740061 0.289559 -3.14835 5.63556 17.4308 -8.12095 3.42251 11.0315 -3.4512 -35.0064 -10.1096 -3.19536 4.57832 -19.1256 -12.4622 
27.7054 95.4642 25.9438 -0.453293 -17.1419 6.14731 0 0 0 12.6403 -14.8385 2.59119 0.25609 28.6004 0.0643632 -3.57193 46.9263 16.49 -11.941 -7.12291 17.9346 -37.0619 4.03031 -5.81071 -47.2183 29.3198 0.967936 -4.96978 -10.5679 -10.4124 -11.0456 0.23452 -2.42555 29.2282 7.53723 17.6359 43.2123 16.7747 -7.1179 4.08653 -5.85376 14.1298 3.53094 0.112372 3.67201 10.1993 3.30067 5.60441 -0.000534627 38.5432 -25.7265 8.28401 -25.2118 1.85485 0.821002 0.805832 -3.55753 5.46687 17.3064 -8.14297 3.38344 10.8171 -4.13392 -34.4729 -10.2499 -3.18785 4.59503 -19.0266 -11.765 
28.0467 95.5211 25.9612 -0.325705 -16.8105 6.6104 0 0 0 13.5335 -14.7103 2.8678 -0.898243 29.013 0.673888 -4.2416 45.5821 17.1526 -12.5421 -7.30957 18.2595 -36.2633 4.00384 -5.92921 -47.5748 27.8177 0.186179 -4.71548 -9.72459 -10.0406 -11.0656 0.249779 -2.57755 29.429 7.55348 17.5658 43.1872 17.143 -6.80751 4.17923 -6.08863 14.2278 2.0716 0.071376 3.9311 10.0491 2.93139 6.18059 0.000236543 38.4695 -26.6477 9.12207 -24.6327 1.99612 0.797283 0.024323 -3.34529 5.1541 17.0878 -8.27347 3.47241 10.6516 -4.20178 -34.2698 -10.042 -3.10134 4.58332 -18.9239 -11.6758 
28.4634 95.6625 26.0363 0.0284664 -16.517 7.09686 0 0 0 14.209 -14.4549 3.08389 -1.79733 29.3413 1.27757 -5.72706 44.3418 18.2243 -12.5119 -7.75622 18.3669 -36.5863 4.08561 -6.0497 -46.586 26.6577 -0.486913 -4.91079 -11.7933 -9.81177 -11.3269 0.270909 -2.73297 29.8447 7.61333 17.4929 42.5701 17.0802 -6.7124 4.39984 -6.82349 14.1608 2.41645 0.0809926 3.83614 9.48036 2.89328 6.32093 0.000538597 37.9132 -26.9592 9.01943 -24.3854 1.95264 0.920427 1.20158 -4.00882 4.75644 16.8755 -8.23389 2.95803 10.7596 -4.50704 -32.5049 -10.8238 -3.16586 4.44245 -17.8878 -10.6759 
28.8578 95.7614 26.0791 0.402507 -16.2031 7.43773 0 0 0 13.7439 -13.4393 2.96315 -1.08399 28.6789 1.02681 -8.62871 42.8841 20.1214 -12.6199 -7.9221 18.5012 -37.6221 3.98995 -5.59523 -45.9861 24.7752 -0.360225 -4.51386 -11.338 -10.1407 -10.9274 0.310007 -3.24245 29.0601 7.52137 17.6874 42.8843 17.9877 -6.90592 4.6461 -7.45593 14.3076 2.51198 0.0894769 4.08706 8.98018 2.83011 6.99652 -0.00250834 37.4491 -27.7118 9.44862 -23.792 1.99448 0.981842 0.705623 -4.20178 4.24136 16.7575 -8.30464 2.78054 10.4759 -4.63567 -32.5184 -10.4942 -3.05961 4.47198 -18.0604 -10.8973 
